<?xml version="1.0" encoding="UTF-8"?>
<svg version="1.1" xmlns="http://www.w3.org/2000/svg" width="240" height="240">
<path d="M0 0 C21.01711313 17.78418661 35.76554906 39.56338604 42.93359375 66.31103516 C43.12791992 67.01172119 43.32224609 67.71240723 43.52246094 68.43432617 C45.37906176 76.1709903 45.30579014 84.03041471 45.30419922 91.93969727 C45.30854189 94.34481329 45.34487196 96.74804266 45.3828125 99.15283203 C45.61173128 130.60417676 31.29176834 158.89687966 9.62109375 181.06103516 C-5.83311409 196.32981997 -25.14235461 206.70364377 -46.06640625 212.31103516 C-46.76709229 212.50536133 -47.46777832 212.6996875 -48.18969727 212.89990234 C-55.92636139 214.75650317 -63.78578581 214.68323155 -71.69506836 214.68164062 C-74.10018438 214.6859833 -76.50341375 214.72231337 -78.90820312 214.76025391 C-110.35954785 214.98917269 -138.65225075 200.66920975 -160.81640625 178.99853516 C-182.98012744 156.56565933 -195.16619942 126.23621529 -195.44140625 94.81103516 C-195.14392331 60.84220163 -181.11565584 30.66118572 -157.10522461 6.93164062 C-114.64493805 -33.53336677 -45.78237751 -37.25765653 0 0 Z " fill="#FDFDFD" transform="translate(195.06640625,25.68896484375)"/>
<path d="M0 0 C12.1584375 0.4640625 12.1584375 0.4640625 24.5625 0.9375 C24.5625 18.4275 24.5625 35.9175 24.5625 53.9375 C16.6875 47.1875 16.6875 47.1875 14.10571289 44.59423828 C13.23560326 43.72401535 13.23560326 43.72401535 12.34791565 42.83621216 C11.74970505 42.23284027 11.15149445 41.62946838 10.53515625 41.0078125 C9.58448524 40.05501907 9.58448524 40.05501907 8.61460876 39.08297729 C6.61568594 37.07851284 4.62029216 35.07057786 2.625 33.0625 C1.25999867 31.69247611 -0.1052336 30.32268226 -1.47070312 28.953125 C-4.79564211 25.61723457 -8.11742353 22.27822964 -11.4375 18.9375 C-14.36980193 20.25870828 -16.42414899 21.68388197 -18.671875 23.9765625 C-19.24550781 24.55664062 -19.81914062 25.13671875 -20.41015625 25.734375 C-20.99667969 26.33765625 -21.58320313 26.9409375 -22.1875 27.5625 C-23.09048828 28.47902344 -23.09048828 28.47902344 -24.01171875 29.4140625 C-25.49155305 30.91738624 -26.96514676 32.42684856 -28.4375 33.9375 C-24.55470105 38.70779585 -20.36853793 43.05547705 -16 47.375 C-11.27090975 52.05667246 -6.63761337 56.76536039 -2.4375 61.9375 C-1.89222656 62.55882812 -1.34695312 63.18015625 -0.78515625 63.8203125 C1.76431162 67.82556347 1.1316644 72.37124924 0.5625 76.9375 C-0.77784055 81.29360678 -3.15640629 84.02103375 -7.0625 86.3125 C-8.17625 86.84875 -9.29 87.385 -10.4375 87.9375 C-11.4275 88.4325 -11.4275 88.4325 -12.4375 88.9375 C-13.85723273 89.02684406 -15.28107791 89.05508978 -16.70361328 89.05102539 C-18.02475632 89.05091209 -18.02475632 89.05091209 -19.37258911 89.05079651 C-20.32471283 89.04563522 -21.27683655 89.04047394 -22.2578125 89.03515625 C-23.23160858 89.0337413 -24.20540466 89.03232635 -25.20870972 89.03086853 C-28.32667073 89.02525973 -31.4445606 89.01270573 -34.5625 89 C-36.67317605 88.99498613 -38.78385322 88.99042303 -40.89453125 88.98632812 C-46.07554521 88.97528745 -51.25651752 88.95854073 -56.4375 88.9375 C-56.4375 88.2775 -56.4375 87.6175 -56.4375 86.9375 C-55.839375 86.36 -55.24125 85.7825 -54.625 85.1875 C-50.05560749 80.48755342 -49.09824436 76.12351607 -48.84375 69.79296875 C-51.02368602 59.30919749 -59.63310313 52.23676815 -66.95703125 45.0625 C-68.18394714 43.84560072 -69.40989942 42.62772921 -70.63493347 41.40893555 C-73.84023453 38.22443981 -77.05694808 35.05173909 -80.2767334 31.88189697 C-85.45041154 26.78391168 -90.60510233 21.66670476 -95.76218224 16.55194092 C-97.56514082 14.76672422 -99.37221307 12.98576006 -101.18013 11.20556641 C-102.27613723 10.1227666 -103.37210213 9.03992395 -104.46801758 7.95703125 C-104.97445297 7.46047531 -105.48088837 6.96391937 -106.00267029 6.45231628 C-107.16663643 5.29960769 -108.30515799 4.12128878 -109.4375 2.9375 C-109.4375 2.6075 -109.4375 2.2775 -109.4375 1.9375 C-102.89675717 1.5267827 -96.35939492 1.24969063 -89.80859375 1.05859375 C-87.58858134 0.97884823 -85.36938979 0.87018747 -83.15234375 0.73046875 C-63.74178187 -0.46079317 -63.74178187 -0.46079317 -56.3046875 5.5703125 C-52.27545208 9.36316383 -48.7210336 13.48741837 -45.4375 17.9375 C-42.29257209 16.58779926 -40.68083407 15.26082764 -38.69506836 12.49389648 C-27.66251126 -1.4704112 -16.89005355 -0.9131069 0 0 Z " fill="#9E8E74" transform="translate(170.4375,60.0625)"/>
<path d="M0 0 C14.2474057 -1.62224637 14.2474057 -1.62224637 19.73867798 2.28790283 C23.64159657 5.54145583 27.10288395 9.22023134 30.58203125 12.9140625 C31.89386918 14.24817843 33.20909634 15.57896931 34.5275116 16.90658569 C37.96804944 20.39092013 41.3566608 23.92182714 44.73748779 27.46398926 C47.50508716 30.34629131 50.30805882 33.19272954 53.1135149 36.03812599 C56.46937427 39.44323687 59.80918382 42.86386985 63.14453125 46.2890625 C63.77666849 46.93744709 64.40880573 47.58583168 65.06009865 48.25386429 C66.85058664 50.09813474 68.62986252 51.95249182 70.40551758 53.81103516 C70.93063934 54.35050781 71.45576111 54.88998047 71.99679565 55.44580078 C76.14008369 59.8214448 79.44247133 64.29263751 79.375 70.5 C79.14238715 76.27655232 77.34822564 79.65177436 73.25 83.75 C65.60589389 89.04207346 57.51381795 88.26578234 48.53515625 88.1953125 C47.1326874 88.19157708 45.73021593 88.18873261 44.32774353 88.18673706 C40.65673473 88.17914221 36.98588705 88.15952998 33.31494141 88.1373291 C29.56089456 88.11678072 25.80682139 88.10771621 22.05273438 88.09765625 C14.70174136 88.07627963 7.35091388 88.04113196 0 88 C0 81.4 0 74.8 0 68 C16.17 67.67 32.34 67.34 49 67 C47.11995359 63.23990717 45.59373205 61.34553812 42.67382812 58.4309082 C41.77950073 57.53350418 40.88517334 56.63610016 39.96374512 55.71150208 C38.9864267 54.74108053 38.00892391 53.77084464 37.03125 52.80078125 C36.02962385 51.80034776 35.02836769 50.79954372 34.02746582 49.79838562 C31.93236007 47.70484167 29.83394406 45.61469382 27.73291016 43.52709961 C25.0375773 40.84878905 22.34890711 38.16390978 19.6624527 35.47669697 C17.59701758 33.41153345 15.52898897 31.34898403 13.46006775 29.28731346 C12.46748438 28.29791523 11.47550813 27.30790755 10.48414612 26.31728554 C9.10066827 24.935971 7.71350805 23.55834755 6.32617188 22.1809082 C5.53722534 21.39577347 4.74827881 20.61063873 3.9354248 19.80171204 C2.12140357 17.9431585 2.12140357 17.9431585 0 17 C0 11.39 0 5.78 0 0 Z " fill="#0663A5" transform="translate(40,61)"/>
<path d="M0 0 C9 0 9 0 11.19140625 1.3125 C12.4609375 2.875 13.73046875 4.4375 15 6 C17.56527651 4.90059578 18.92600134 4.0931835 20.6875 1.875 C23 0 23 0 32 0 C32 8.25 32 16.5 32 25 C29.03 25 26.06 25 23 25 C22.67 20.38 22.34 15.76 22 11 C20.35 12.65 18.7 14.3 17 16 C13.90837736 14.61410019 12.50816459 13.50816459 10 11 C9.67 15.62 9.34 20.24 9 25 C6.03 25 3.06 25 0 25 C0 16.75 0 8.5 0 0 Z " fill="#1167A5" transform="translate(117,156)"/>
<path d="M0 0 C6.93 0 13.86 0 21 0 C21.33 1.98 21.66 3.96 22 6 C17.71 6 13.42 6 9 6 C9 6.99 9 7.98 9 9 C12.96 9 16.92 9 21 9 C20.67 10.98 20.34 12.96 20 15 C16.37 15 12.74 15 9 15 C9 16.32 9 17.64 9 19 C13.62 19 18.24 19 23 19 C22.67 20.98 22.34 22.96 22 25 C14.74 25 7.48 25 0 25 C0 16.75 0 8.5 0 0 Z " fill="#1469A5" transform="translate(41,157)"/>
<path d="M0 0 C3.39635708 1.56592165 5.80287606 3.83079911 8.3828125 6.46875 C8.89328125 6.95537109 9.40375 7.44199219 9.9296875 7.94335938 C11.375 9.39453125 11.375 9.39453125 13.5078125 12.15625 C13.19126165 15.35203728 12.05228898 16.97633593 9.78515625 19.171875 C9.24697266 19.70039062 8.70878906 20.22890625 8.15429688 20.7734375 C7.59033203 21.31226562 7.02636719 21.85109375 6.4453125 22.40625 C5.87748047 22.96054688 5.30964844 23.51484375 4.72460938 24.0859375 C3.32568781 25.44959214 1.91762136 26.80385417 0.5078125 28.15625 C-3.48651531 26.53563967 -6.28777071 23.76285827 -9.3046875 20.78125 C-9.81966797 20.29914063 -10.33464844 19.81703125 -10.86523438 19.3203125 C-14.44324684 15.7949883 -14.44324684 15.7949883 -14.64453125 13.16796875 C-12.9216215 10.16017715 -10.66991393 7.7809845 -8.2421875 5.34375 C-7.76394531 4.82876953 -7.28570312 4.31378906 -6.79296875 3.78320312 C-4.58930452 1.55266494 -3.19420487 0.20026363 0 0 Z " fill="#0D66A5" transform="translate(126.4921875,45.84375)"/>
<path d="M0 0 C6.93 0 13.86 0 21 0 C21.33 1.65 21.66 3.3 22 5 C17.71 5 13.42 5 9 5 C9 6.32 9 7.64 9 9 C12.96 9 16.92 9 21 9 C20.34 10.65 19.68 12.3 19 14 C15.7 14 12.4 14 9 14 C9 15.65 9 17.3 9 19 C13.62 19 18.24 19 23 19 C22.67 20.65 22.34 22.3 22 24 C14.74 24 7.48 24 0 24 C0 16.08 0 8.16 0 0 Z " fill="#0962A1" transform="translate(91,157)"/>
<path d="M0 0 C6.6 0 13.2 0 20 0 C20.66 1.65 21.32 3.3 22 5 C17.38 5 12.76 5 8 5 C8 6.32 8 7.64 8 9 C11.96 9 15.92 9 20 9 C19.67 10.65 19.34 12.3 19 14 C15.37 14 11.74 14 8 14 C8 15.65 8 17.3 8 19 C12.62 19 17.24 19 22 19 C21.67 20.65 21.34 22.3 21 24 C14.07 24 7.14 24 0 24 C0 16.08 0 8.16 0 0 Z " fill="#0560A1" transform="translate(174,156)"/>
<path d="M0 0 C15.84 0 31.68 0 48 0 C48 0.33 48 0.66 48 1 C32.82 1.33 17.64 1.66 2 2 C5.91230469 5.86589844 9.82460937 9.73179688 13.85546875 13.71484375 C16.34031276 16.17923197 18.82453108 18.64419321 21.30664062 21.11132812 C25.24008594 25.02093013 29.17556721 28.92830809 33.12426758 32.82250977 C36.31027912 35.96482594 39.48620896 39.11702187 42.65560341 42.27609444 C43.86204902 43.47519107 45.07199007 44.67078214 46.28557396 45.86265373 C61.74877528 61.06029296 61.74877528 61.06029296 62.6875 70.9375 C62.38786646 76.73041506 59.80677482 81.67808823 56 86 C53.91796875 86.70703125 53.91796875 86.70703125 52 87 C51.360625 87.37125 50.72125 87.7425 50.0625 88.125 C47.37363338 89.26573129 45.76141748 88.76706041 43 88 C43 87.67 43 87.34 43 87 C43.60328125 86.82984375 44.2065625 86.6596875 44.828125 86.484375 C50.60526379 84.73259743 54.15483739 83.22903457 57.25 77.8125 C58.74635985 72.20115058 58.88736476 67.77597112 56.25512695 62.5078125 C51.94344962 55.97348892 46.02712567 50.65973029 40.48046875 45.1875 C39.25384457 43.96647974 38.02788749 42.74478899 36.80256653 41.52246094 C33.59524388 38.32652437 30.37901188 35.13970534 27.1607666 31.95477295 C23.87057246 28.69541484 20.58898623 25.42741477 17.30664062 22.16015625 C10.87943542 15.76500499 4.44277398 9.37946362 -2 3 C-1.34 2.67 -0.68 2.34 0 2 C0 1.34 0 0.68 0 0 Z " fill="#D9E7E7" transform="translate(60,61)"/>
<path d="M0 0 C0.69738281 0.01353516 1.39476563 0.02707031 2.11328125 0.04101562 C3.82585541 0.0762055 5.53802941 0.13000845 7.25 0.1875 C7.58 1.8375 7.91 3.4875 8.25 5.1875 C4.95 5.1875 1.65 5.1875 -1.75 5.1875 C1.67166518 9.89228962 5.82905197 13.46403164 10.25 17.1875 C9.98363846 20.47262569 9.69315757 21.80847284 7.14453125 23.98828125 C3.55670927 25.47473381 0.80873501 25.4835393 -3.0625 25.375 C-4.94388672 25.33439453 -4.94388672 25.33439453 -6.86328125 25.29296875 C-7.81589844 25.25816406 -8.76851563 25.22335938 -9.75 25.1875 C-10.08 23.2075 -10.41 21.2275 -10.75 19.1875 C-7.45 19.1875 -4.15 19.1875 -0.75 19.1875 C-1.45125 18.48625 -2.1525 17.785 -2.875 17.0625 C-3.32488281 16.60617188 -3.77476563 16.14984375 -4.23828125 15.6796875 C-5.27280181 14.65853284 -6.33461022 13.66449976 -7.41796875 12.6953125 C-11.59158885 8.86866794 -11.59158885 8.86866794 -12.375 5.5 C-11.75 3.1875 -11.75 3.1875 -10.1953125 1.5546875 C-6.82827548 -0.32784118 -3.74376986 -0.13800286 0 0 Z " fill="#1A6DA7" transform="translate(77.75,156.8125)"/>
<path d="M0 0 C-0.33 0.33 -0.66 0.66 -1 1 C-0.06933716 1.029729 -0.06933716 1.029729 0.88012695 1.06005859 C3.69134537 1.15531845 6.50182166 1.26499302 9.3125 1.375 C10.28896484 1.4059375 11.26542969 1.436875 12.27148438 1.46875 C13.20927734 1.50742188 14.14707031 1.54609375 15.11328125 1.5859375 C15.97735596 1.6173584 16.84143066 1.6487793 17.73168945 1.68115234 C20 2 20 2 23 4 C23.34057617 5.97119141 23.34057617 5.97119141 23.29296875 8.3515625 C23.2784668 9.62773437 23.2784668 9.62773437 23.26367188 10.9296875 C23.23853516 11.81914062 23.21339844 12.70859375 23.1875 13.625 C23.16719727 14.97078125 23.16719727 14.97078125 23.14648438 16.34375 C23.11106925 18.56309789 23.06168461 20.78125188 23 23 C22.34 22.67 21.68 22.34 21 22 C18.62597499 21.92883618 16.24999323 21.91590915 13.875 21.9375 C12.59367187 21.94652344 11.31234375 21.95554688 9.9921875 21.96484375 C8.51105469 21.98224609 8.51105469 21.98224609 7 22 C7 20.35 7 18.7 7 17 C10.3 16.67 13.6 16.34 17 16 C17.495 14.515 17.495 14.515 18 13 C12.555 12.505 12.555 12.505 7 12 C7 10.68 7 9.36 7 8 C11.29 8 15.58 8 20 8 C19.505 5.525 19.505 5.525 19 3 C12.07 3 5.14 3 -2 3 C-2 10.92 -2 18.84 -2 27 C-2.33 27 -2.66 27 -3 27 C-3.33 20.73 -3.66 14.46 -4 8 C-5.65 8.33 -7.3 8.66 -9 9 C-9 11.31 -9 13.62 -9 16 C-13.08649371 13.51256905 -14.80682128 12.38635744 -17 8 C-13.7 8 -10.4 8 -7 8 C-7.33 6.68 -7.66 5.36 -8 4 C-7.34 3.34 -6.68 2.68 -6 2 C-6 1.34 -6 0.68 -6 0 C-3.50907189 -1.24546405 -2.58919267 -0.7767578 0 0 Z " fill="#D6E8EE" transform="translate(93,154)"/>
<path d="M0 0 C4.62 0 9.24 0 14 0 C14.08104454 3.56295812 14.14052442 7.12406707 14.1875 10.6875 C14.21263672 11.69490234 14.23777344 12.70230469 14.26367188 13.74023438 C14.35766921 23.23396561 14.35766921 23.23396561 11 27 C9.09765625 28.43359375 9.09765625 28.43359375 7.0625 29.4375 C6.39347656 29.78683594 5.72445312 30.13617188 5.03515625 30.49609375 C3 31 3 31 0.80859375 30.28515625 C-1 29 -1 29 -2 26 C-1.02804688 25.52046875 -0.05609375 25.0409375 0.9453125 24.546875 C4.28871394 21.78977695 4.28871394 21.78977695 4.8046875 17.890625 C4.8575473 16.34447578 4.88013116 14.79704404 4.875 13.25 C4.895625 12.45722656 4.91625 11.66445312 4.9375 10.84765625 C4.98445818 8.89889185 4.99574383 6.94932543 5 5 C3.02 5 1.04 5 -1 5 C-0.67 3.35 -0.34 1.7 0 0 Z " fill="#0E65A3" transform="translate(154,156)"/>
<path d="M0 0 C0.99 0 1.98 0 3 0 C3.23460938 0.73863281 3.46921875 1.47726563 3.7109375 2.23828125 C5.21519805 5.46104553 6.8903401 6.94334259 9.625 9.1875 C11.11717235 10.41842451 12.58500394 11.68108392 14 13 C14 13.66 14 14.32 14 15 C10.7 15 7.4 15 4 15 C4.33 16.65 4.66 18.3 5 20 C3.35 20 1.7 20 0 20 C0.33 18.35 0.66 16.7 1 15 C-3.62 15 -8.24 15 -13 15 C-13 13.68 -13 12.36 -13 11 C-9.37 11 -5.74 11 -2 11 C-1.67 9.02 -1.34 7.04 -1 5 C-4.96 5 -8.92 5 -13 5 C-13 4.01 -13 3.02 -13 2 C-8.71 2 -4.42 2 0 2 C0 1.34 0 0.68 0 0 Z " fill="#EEF6F7" transform="translate(63,161)"/>
<path d="M0 0 C0.99 0.99 1.98 1.98 3 3 C3.66 2.01 4.32 1.02 5 0 C5 1.32 5 2.64 5 4 C6.65 4.33 8.3 4.66 10 5 C10.13517903 7.75164432 10.23415251 10.49664521 10.3125 13.25 C10.3753418 14.41595703 10.3753418 14.41595703 10.43945312 15.60546875 C10.56328662 21.40087622 10.56328662 21.40087622 7.60546875 24.546875 C5 26 5 26 3 26 C3.33 26.99 3.66 27.98 4 29 C2.68 28.67 1.36 28.34 0 28 C0 27.34 0 26.68 0 26 C-0.66 25.67 -1.32 25.34 -2 25 C-1.34 25 -0.68 25 0 25 C0 16.75 0 8.5 0 0 Z " fill="#E9F3F5" transform="translate(149,156)"/>
<path d="M0 0 C6.16824506 0.7977407 10.12394031 6.59168656 14 11 C17.9125174 16.13572128 19.89588014 20.90881735 19.55859375 27.4296875 C18.52712838 32.17587083 16.20261137 36.36400773 13 40 C10.91796875 40.70703125 10.91796875 40.70703125 9 41 C8.360625 41.37125 7.72125 41.7425 7.0625 42.125 C4.37363338 43.26573129 2.76141748 42.76706041 0 42 C0 41.67 0 41.34 0 41 C0.60328125 40.82984375 1.2065625 40.6596875 1.828125 40.484375 C7.60526379 38.73259743 11.15483739 37.22903457 14.25 31.8125 C15.73324032 26.2503488 16.05922483 21.1844331 13.125 16.0625 C9.99499655 11.55348054 5.99076645 7.85406588 2.01171875 4.1015625 C0 2 0 2 0 0 Z " fill="#E8F1EF" transform="translate(103,107)"/>
<path d="M0 0 C1.98 0 3.96 0 6 0 C6.94137255 2.82411765 7.11725382 4.52918032 7.09765625 7.44921875 C7.09443359 8.29677734 7.09121094 9.14433594 7.08789062 10.01757812 C7.07951172 10.89865234 7.07113281 11.77972656 7.0625 12.6875 C7.05798828 13.58017578 7.05347656 14.47285156 7.04882812 15.39257812 C7.03704983 17.59511987 7.02060164 19.79752599 7 22 C4.69 22 2.38 22 0 22 C-0.05394705 19.39555652 -0.09364469 16.79223002 -0.125 14.1875 C-0.14175781 13.44951172 -0.15851563 12.71152344 -0.17578125 11.95117188 C-0.21074628 8.08753574 -0.19397555 6.29096332 2 3 C1.01 2.67 0.02 2.34 -1 2 C-0.67 1.34 -0.34 0.68 0 0 Z " fill="#0160A5" transform="translate(141,158)"/>
<path d="M0 0 C4.66666667 4.66666667 9.33333333 9.33333333 14 14 C17.84938529 12.42443765 20.24588522 9.95646413 23.125 7 C23.99382812 6.113125 24.86265625 5.22625 25.7578125 4.3125 C26.49773437 3.549375 27.23765625 2.78625 28 2 C28.66 1.34 29.32 0.68 30 0 C29.42655063 2.86724686 29.1385485 3.8614515 27 6 C26.58621094 7.15048828 26.58621094 7.15048828 26.1640625 8.32421875 C24.75216969 11.56967707 22.923296 13.37341668 20.375 15.8125 C19.55773437 16.60269531 18.74046875 17.39289063 17.8984375 18.20703125 C17.27195313 18.79871094 16.64546875 19.39039062 16 20 C12.95667235 18.6415798 10.87690849 17.11536976 8.546875 14.7421875 C7.61875 13.80439453 7.61875 13.80439453 6.671875 12.84765625 C6.03765625 12.19667969 5.4034375 11.54570313 4.75 10.875 C4.1003125 10.21628906 3.450625 9.55757812 2.78125 8.87890625 C1.18288273 7.25703357 -0.41061897 5.6306719 -2 4 C-1.34 2.68 -0.68 1.36 0 0 Z " fill="#EAF0ED" transform="translate(111,59)"/>
<path d="M0 0 C0.69738281 0.01353516 1.39476563 0.02707031 2.11328125 0.04101562 C3.82585541 0.0762055 5.53802941 0.13000845 7.25 0.1875 C7.58 1.8375 7.91 3.4875 8.25 5.1875 C2.31 5.6825 2.31 5.6825 -3.75 6.1875 C-3.42 8.1675 -3.09 10.1475 -2.75 12.1875 C-4.4375 13 -4.4375 13 -6.75 13.1875 C-9.76016516 10.86146328 -11.50328804 9.33882247 -12.3125 5.5625 C-11.75 3.1875 -11.75 3.1875 -10.19921875 1.55078125 C-6.8293568 -0.32494733 -3.74365108 -0.13799848 0 0 Z " fill="#0E64A0" transform="translate(77.75,156.8125)"/>
<path d="M0 0 C0 8.25 0 16.5 0 25 C-2.97 25 -5.94 25 -9 25 C-9 19.72 -9 14.44 -9 9 C-10.65 9.33 -12.3 9.66 -14 10 C-14.50709429 6.45033999 -14.13037986 5.18926109 -12.0625 2.1875 C-9 0 -9 0 0 0 Z M-8 2 C-8 2.99 -8 3.98 -8 5 C-7.34 5 -6.68 5 -6 5 C-6.66 5.99 -7.32 6.98 -8 8 C-8.14245897 10.76655324 -8.18769445 13.42653306 -8.125 16.1875 C-8.11597656 16.93708984 -8.10695312 17.68667969 -8.09765625 18.45898438 C-8.07412578 20.30612654 -8.03825561 22.15310412 -8 24 C-5.69 24 -3.38 24 -1 24 C-0.97096423 20.89585298 -0.9531893 17.79174091 -0.9375 14.6875 C-0.92912109 13.80642578 -0.92074219 12.92535156 -0.91210938 12.01757812 C-0.90888672 11.17001953 -0.90566406 10.32246094 -0.90234375 9.44921875 C-0.89710693 8.66893311 -0.89187012 7.88864746 -0.88647461 7.0847168 C-0.91862137 4.8038445 -0.91862137 4.8038445 -2 2 C-3.98 2 -5.96 2 -8 2 Z " fill="#2470A5" transform="translate(149,156)"/>
<path d="M0 0 C15.84 0 31.68 0 48 0 C48 0.33 48 0.66 48 1 C32.82 1.33 17.64 1.66 2 2 C6.62 6.62 11.24 11.24 16 16 C15.34 16.33 14.68 16.66 14 17 C9.65103521 14.91940718 6.49677134 11.73664592 3.1875 8.3125 C2.68541016 7.80138672 2.18332031 7.29027344 1.66601562 6.76367188 C0.43936491 5.51365638 -0.78097491 4.2574532 -2 3 C-1.34 2.67 -0.68 2.34 0 2 C0 1.34 0 0.68 0 0 Z " fill="#D5D6CF" transform="translate(60,61)"/>
<path d="M0 0 C0 4.95 0 9.9 0 15 C-0.99 15.495 -0.99 15.495 -2 16 C-3.01351664 14.34151823 -4.01120795 12.67334039 -5 11 C-5.61875 10.01 -5.61875 10.01 -6.25 9 C-7.28999082 6.22669115 -7.082836 4.74318452 -6 2 C-2.19047619 0 -2.19047619 0 0 0 Z " fill="#F9FDFA" transform="translate(90,161)"/>
<path d="M0 0 C3.63 0 7.26 0 11 0 C11 0.99 11 1.98 11 3 C12.32 3.33 13.64 3.66 15 4 C14.67 4.99 14.34 5.98 14 7 C14 6.34 14 5.68 14 5 C9.38 5 4.76 5 0 5 C0 3.35 0 1.7 0 0 Z " fill="#C9DEE9" transform="translate(182,170)"/>
<path d="M0 0 C0.33 0 0.66 0 1 0 C1.83800432 7.29374132 0.54817363 11.84247653 -3.296875 18.06640625 C-5.2202562 20.25006151 -6.18690359 20.57030096 -9 21 C-9.639375 21.37125 -10.27875 21.7425 -10.9375 22.125 C-13.62636662 23.26573129 -15.23858252 22.76706041 -18 22 C-18 21.67 -18 21.34 -18 21 C-17.39671875 20.82984375 -16.7934375 20.6596875 -16.171875 20.484375 C-9.74788562 18.53645564 -6.51998716 16.82283329 -3.25 10.75 C-2.8375 9.8425 -2.425 8.935 -2 8 C-1.34 8 -0.68 8 0 8 C0 5.36 0 2.72 0 0 Z " fill="#E8E8E0" transform="translate(121,127)"/>
<path d="M0 0 C1.32 0.99 2.64 1.98 4 3 C3.67 3.99 3.34 4.98 3 6 C-13.17 6 -29.34 6 -46 6 C-46 5.67 -46 5.34 -46 5 C-30.82 5 -15.64 5 0 5 C0 3.35 0 1.7 0 0 Z " fill="#EDFBFD" transform="translate(86,123)"/>
<path d="M0 0 C4.62 0 9.24 0 14 0 C13.67 1.65 13.34 3.3 13 5 C7.06 5 1.12 5 -5 5 C-5 4.01 -5 3.02 -5 2 C0.28 2.33 5.56 2.66 11 3 C11 2.34 11 1.68 11 1 C7.37 1 3.74 1 0 1 C0 0.67 0 0.34 0 0 Z " fill="#136AA5" transform="translate(50,176)"/>
<path d="M0 0 C0.33 1.32 0.66 2.64 1 4 C1.99 4 2.98 4 4 4 C4 4.66 4 5.32 4 6 C-0.62 6 -5.24 6 -10 6 C-10.33 4.68 -10.66 3.36 -11 2 C-7.37 2 -3.74 2 0 2 C0 1.34 0 0.68 0 0 Z " fill="#0A63A1" transform="translate(78,174)"/>
<path d="M0 0 C3.96 0 7.92 0 12 0 C11.67 1.98 11.34 3.96 11 6 C7.37 6 3.74 6 0 6 C1.32 4.68 2.64 3.36 4 2 C2.68 1.34 1.36 0.68 0 0 Z " fill="#2773A6" transform="translate(50,166)"/>
<path d="M0 0 C3.3 0 6.6 0 10 0 C9.01 0.495 9.01 0.495 8 1 C8 3.31 8 5.62 8 8 C3.91350629 5.51256905 2.19317872 4.38635744 0 0 Z " fill="#D1E5EC" transform="translate(76,162)"/>
<path d="M0 0 C4.29 0 8.58 0 13 0 C13 0.99 13 1.98 13 3 C8.71 3 4.42 3 0 3 C0 2.01 0 1.02 0 0 Z " fill="#F0FCFC" transform="translate(50,163)"/>
<path d="M0 0 C1.58294782 -0.05437607 3.16644256 -0.09296271 4.75 -0.125 C5.63171875 -0.14820313 6.5134375 -0.17140625 7.421875 -0.1953125 C10.1135858 0.00860498 11.69904974 0.63448279 14 2 C13 3 13 3 10.05859375 3.09765625 C8.26615234 3.08025391 8.26615234 3.08025391 6.4375 3.0625 C4.64119141 3.04896484 4.64119141 3.04896484 2.80859375 3.03515625 C1.88175781 3.02355469 0.95492187 3.01195312 0 3 C0 2.01 0 1.02 0 0 Z " fill="#F7FDFC" transform="translate(100,172)"/>
<path d="M0 0 C0.33 0.66 0.66 1.32 1 2 C-2.3 2 -5.6 2 -9 2 C-8.67 3.65 -8.34 5.3 -8 7 C-9.65 7 -11.3 7 -13 7 C-12.67 5.35 -12.34 3.7 -12 2 C-12.66 1.67 -13.32 1.34 -14 1 C-9.38 0.67 -4.76 0.34 0 0 Z " fill="#D1E7F0" transform="translate(76,174)"/>
<path d="M0 0 C0.33 0 0.66 0 1 0 C1 7.59 1 15.18 1 23 C-0.32 23.33 -1.64 23.66 -3 24 C-2.67 22.02 -2.34 20.04 -2 18 C-1.67 18 -1.34 18 -1 18 C-0.505 9.09 -0.505 9.09 0 0 Z " fill="#E6F7F8" transform="translate(116,157)"/>
<path d="M0 0 C0.33 0 0.66 0 1 0 C1 5.61 1 11.22 1 17 C2.32 17.66 3.64 18.32 5 19 C5.33 19.66 5.66 20.32 6 21 C4.68 21.33 3.36 21.66 2 22 C0.33325679 19.08175756 -0.2432008 17.02405621 -0.1953125 13.671875 C-0.18886719 12.87265625 -0.18242188 12.0734375 -0.17578125 11.25 C-0.15902344 10.425 -0.14226563 9.6 -0.125 8.75 C-0.11597656 7.90953125 -0.10695312 7.0690625 -0.09765625 6.203125 C-0.07415817 4.13529396 -0.03828908 2.06761005 0 0 Z " fill="#E2F2F6" transform="translate(39,61)"/>
<path d="M0 0 C0.99 0 1.98 0 3 0 C3 0.66 3 1.32 3 2 C2.34 2 1.68 2 1 2 C1 4.97 1 7.94 1 11 C0.01 11 -0.98 11 -2 11 C-2.33 9.68 -2.66 8.36 -3 7 C-2.34 7 -1.68 7 -1 7 C-1.020625 6.030625 -1.04125 5.06125 -1.0625 4.0625 C-1 1 -1 1 0 0 Z " fill="#0161A7" transform="translate(74,158)"/>
<path d="M0 0 C0.33 1.32 0.66 2.64 1 4 C-1.8470894 6.89137746 -4.69272133 9.63919457 -8 12 C-11.5625 12 -11.5625 12 -14 11 C-14 10.67 -14 10.34 -14 10 C-13.39671875 9.82984375 -12.7934375 9.6596875 -12.171875 9.484375 C-5.77500507 7.55059316 -5.77500507 7.55059316 -1 3 C-0.67 2.01 -0.34 1.02 0 0 Z " fill="#C6E0EB" transform="translate(117,138)"/>
<path d="M0 0 C1.9453125 -0.29296875 1.9453125 -0.29296875 4.125 -0.1875 C5.40375 -0.125625 6.6825 -0.06375 8 0 C8 1.65 8 3.3 8 5 C7.67 4.01 7.34 3.02 7 2 C2.545 2.495 2.545 2.495 -2 3 C-1.34 2.01 -0.68 1.02 0 0 Z " fill="#186698" transform="translate(140,156)"/>
<path d="M0 0 C0.66 0 1.32 0 2 0 C2 2.97 2 5.94 2 9 C1.01 9.495 1.01 9.495 0 10 C-0.74926071 6.33694766 -1.2380014 3.57644848 0 0 Z " fill="#2D76A8" transform="translate(117,127)"/>
<path d="M0 0 C0.33 0.99 0.66 1.98 1 3 C0.2884375 3.6496875 0.2884375 3.6496875 -0.4375 4.3125 C-2.23686957 6.02309613 -2.23686957 6.02309613 -3 9 C-4.65 9.33 -6.3 9.66 -8 10 C-7.59007812 9.52949219 -7.18015625 9.05898437 -6.7578125 8.57421875 C-6.21898437 7.95160156 -5.68015625 7.32898438 -5.125 6.6875 C-4.59132812 6.07261719 -4.05765625 5.45773438 -3.5078125 4.82421875 C-1.8359553 2.86501788 -1.8359553 2.86501788 0 0 Z " fill="#DCEEF4" transform="translate(140,59)"/>
<path d="M0 0 C0.99 0.66 1.98 1.32 3 2 C-0.465 4.97 -0.465 4.97 -4 8 C-3.07377893 4.29511572 -2.32789515 2.83395931 0 0 Z " fill="#F6F4EC" transform="translate(141,60)"/>
<path d="M0 0 C-0.33 1.65 -0.66 3.3 -1 5 C-4.875 3.25 -4.875 3.25 -6 1 C-3.92446352 0.4465236 -2.15634036 0 0 0 Z " fill="#1C69A2" transform="translate(128,69)"/>
<path d="M0 0 C1.98 0.66 3.96 1.32 6 2 C5.67 3.65 5.34 5.3 5 7 C1.125 2.25 1.125 2.25 0 0 Z " fill="#E1EFF2" transform="translate(84,170)"/>
<path d="M0 0 C1.32 0 2.64 0 4 0 C4.33 1.32 4.66 2.64 5 4 C2.03 3.505 2.03 3.505 -1 3 C-0.67 2.01 -0.34 1.02 0 0 Z " fill="#1F6EA6" transform="translate(191,157)"/>
<path d="M0 0 C1.32 0.99 2.64 1.98 4 3 C3.67 3.99 3.34 4.98 3 6 C2.01 6 1.02 6 0 6 C0 4.02 0 2.04 0 0 Z " fill="#DEEFF2" transform="translate(86,123)"/>
</svg>
